<svg xmlns="http://www.w3.org/2000/svg" viewBox="0 0 123.41 36.20" width="123.41" height="36.20" role="img" aria-label="monje.io">
  <title>monje.io</title>
  <g transform="translate(4.025 25.075)">
    <g fill="#0F0F0F"><path transform="translate(0.000 0) scale(0.02500 -0.02500)" d="M79 0V543H189V309.5H179Q179 391.5 200.0 447.0Q221 502.5 262.5 531.25Q304 560 366 560H372Q434.5 560 476.0 531.25Q517.5 502.5 538.25 447.0Q559 391.5 559 309.5H524Q524 391.5 545.25 447.0Q566.5 502.5 608.25 531.25Q650 560 712 560H718Q780.5 560 822.75 531.25Q865 502.5 886.5 447.0Q908 391.5 908 309.5V0H769V322.5Q769 374 742.75 404.5Q716.5 435 669 435Q620.5 435 591.75 403.5Q563 372 563 318.5V0H424V322.5Q424 374 397.75 404.5Q371.5 435 324 435Q275.5 435 246.75 403.5Q218 372 218 318.5V0Z"/><path transform="translate(23.950 0) scale(0.02500 -0.02500)" d="M339.5 -19Q268 -19 213.0 4.0Q158 27 120.0 66.25Q82 105.5 62.5 155.5Q43 205.5 43 260V281Q43 336.5 63.25 387.25Q83.5 438 122.0 477.25Q160.5 516.5 215.5 539.25Q270.5 562 339.5 562Q409 562 463.75 539.25Q518.5 516.5 557.0 477.25Q595.5 438 615.75 387.25Q636 336.5 636 281V260Q636 205.5 616.5 155.5Q597 105.5 559.0 66.25Q521 27 466.0 4.0Q411 -19 339.5 -19ZM339.5 100Q390.5 100 425.5 122.25Q460.5 144.5 478.75 183.25Q497 222 497 270.5Q497 320.5 478.25 359.25Q459.5 398 424.25 420.5Q389 443 339.5 443Q290.5 443 255.0 420.5Q219.5 398 200.75 359.25Q182 320.5 182 270.5Q182 222 200.25 183.25Q218.5 144.5 253.75 122.25Q289 100 339.5 100Z"/><path transform="translate(40.425 0) scale(0.02500 -0.02500)" d="M79 0V543H189V310H179Q179 392.5 200.75 448.0Q222.5 503.5 266.25 531.75Q310 560 374.5 560H380.5Q478 560 528.0 497.25Q578 434.5 578 310.5V0H439V323Q439 373 410.25 404.0Q381.5 435 331.5 435Q280.5 435 249.25 403.25Q218 371.5 218 319V0Z"/><path transform="translate(56.125 0) scale(0.02500 -0.02500)" d="M2 -205V-86H44Q81 -86 100.75 -66.0Q120.5 -46 120.5 -9.5V543H254.5V-1.5Q254.5 -76.5 231.75 -121.0Q209 -165.5 160.75 -185.25Q112.5 -205 35 -205ZM41.5 439V543H254.5V439ZM166 612Q125.5 612 106.0 633.25Q86.5 654.5 86.5 687.5Q86.5 720.5 106.0 741.75Q125.5 763 166 763Q207 763 226.25 741.75Q245.5 720.5 245.5 687.5Q245.5 654.5 226.25 633.25Q207 612 166 612Z"/><path transform="translate(63.925 0) scale(0.02500 -0.02500)" d="M322 -19Q252 -19 199.5 5.0Q147 29 112.5 69.25Q78 109.5 60.5 159.5Q43 209.5 43 262V281Q43 335 60.5 385.25Q78 435.5 112.25 475.25Q146.5 515 197.75 538.5Q249 562 316 562Q404 562 463.25 523.25Q522.5 484.5 552.75 422.25Q583 360 583 288V237.5H102V322.5H495.5L453 281Q453 333 437.75 370.0Q422.5 407 392.25 427.0Q362 447 316 447Q269.5 447 237.5 425.75Q205.5 404.5 189.25 365.25Q173 326 173 271Q173 219.5 188.75 180.0Q204.5 140.5 237.5 118.25Q270.5 96 322 96Q372.5 96 404.5 116.5Q436.5 137 445.5 166.5H573.5Q562 111 527.75 69.0Q493.5 27 441.25 4.0Q389 -19 322 -19Z"/></g>
    <rect x="82.525" y="-15.872" width="30.857" height="17.794" rx="4.650" fill="#C7FF2E"/>
    <g fill="#0F0F0F" transform="translate(87.977 -1.480)"><path transform="translate(0.000 0) scale(0.01550 -0.01550)" d="M48.25 0V179H224.25V0Z"/><path transform="translate(4.154 0) scale(0.01550 -0.01550)" d="M98.5 0V547.5H259V0ZM25.5 429.5V547.5H259V429.5ZM161.125 602Q116 602 94.5 625.375Q73 648.75 73 685.25Q73 721.75 94.58928571428572 745.125Q116.17857142857143 768.5 160.75 768.5Q206.25 768.5 227.375 745.125Q248.5 721.75 248.5 685.25Q248.5 648.75 227.375 625.375Q206.25 602 161.125 602Z"/><path transform="translate(9.253 0) scale(0.01550 -0.01550)" d="M340.25 -19.5Q268 -19.5 212.0 3.0Q156 25.5 117.25 64.625Q78.5 103.75 58.5 154.25Q38.5 204.75 38.5 261V283.5Q38.5 341.25 59.375 392.625Q80.25 444 119.5 483.125Q158.75 522.25 214.75 544.625Q270.75 567 340.25 567Q410.5 567 466.125 544.625Q521.75 522.25 561.0 483.125Q600.25 444 621.125 392.625Q642 341.25 642 283.5V261Q642 204.75 622.0 154.25Q602 103.75 563.25 64.625Q524.5 25.5 468.5 3.0Q412.5 -19.5 340.25 -19.5ZM340.25 116Q386.75 116 418.0 136.125Q449.25 156.25 465.375 191.875Q481.5 227.5 481.5 272.25Q481.5 318.75 464.875 354.375Q448.25 390 416.625 410.75Q385 431.5 340.25 431.5Q295.75 431.5 264.0 410.75Q232.25 390 215.625 354.375Q199 318.75 199 272.25Q199 227.5 215.125 191.875Q231.25 156.25 262.875 136.125Q294.5 116 340.25 116Z"/></g>
  </g>
</svg>
